<mxfile host="app.diagrams.net" agent="Mozilla/5.0 (Windows NT 10.0; Win64; x64; rv:142.0) Gecko/20100101 Firefox/142.0" version="28.2.2">
  <diagram name="Página-1" id="0XIWDUNFnCD79X5UrX8S">
    <mxGraphModel dx="679" dy="380" grid="1" gridSize="10" guides="1" tooltips="1" connect="1" arrows="1" fold="1" page="1" pageScale="1" pageWidth="827" pageHeight="1169" math="0" shadow="0">
      <root>
        <mxCell id="0" />
        <mxCell id="1" parent="0" />
        <mxCell id="heYqbjxYNgFWLn4nG5Zt-1" value="" style="rounded=0;whiteSpace=wrap;html=1;" parent="1" vertex="1">
          <mxGeometry x="280" y="360" width="364" height="200" as="geometry" />
        </mxCell>
        <mxCell id="heYqbjxYNgFWLn4nG5Zt-2" value="&lt;div&gt;Usuario&amp;nbsp;&lt;/div&gt;&lt;div&gt;Registrado&lt;/div&gt;" style="shape=umlActor;verticalLabelPosition=bottom;verticalAlign=top;html=1;outlineConnect=0;" parent="1" vertex="1">
          <mxGeometry x="220" y="370" width="30" height="60" as="geometry" />
        </mxCell>
        <mxCell id="heYqbjxYNgFWLn4nG5Zt-4" value="" style="endArrow=none;html=1;rounded=0;entryX=0;entryY=0.5;entryDx=0;entryDy=0;" parent="1" source="heYqbjxYNgFWLn4nG5Zt-2" target="tTuiCgxSwF_mFrkpsnnS-12" edge="1">
          <mxGeometry width="50" height="50" relative="1" as="geometry">
            <mxPoint x="424" y="600" as="sourcePoint" />
            <mxPoint x="304" y="455" as="targetPoint" />
          </mxGeometry>
        </mxCell>
        <mxCell id="heYqbjxYNgFWLn4nG5Zt-5" style="rounded=0;orthogonalLoop=1;jettySize=auto;html=1;exitX=0;exitY=0.5;exitDx=0;exitDy=0;entryX=1;entryY=0.5;entryDx=0;entryDy=0;dashed=1;" parent="1" source="tTuiCgxSwF_mFrkpsnnS-13" target="tTuiCgxSwF_mFrkpsnnS-12" edge="1">
          <mxGeometry relative="1" as="geometry">
            <mxPoint x="494" y="455" as="sourcePoint" />
            <mxPoint x="424" y="455" as="targetPoint" />
          </mxGeometry>
        </mxCell>
        <mxCell id="heYqbjxYNgFWLn4nG5Zt-6" value="&lt;font style=&quot;font-size: 9px;&quot;&gt;extend&lt;/font&gt;" style="edgeLabel;html=1;align=center;verticalAlign=middle;resizable=0;points=[];" parent="heYqbjxYNgFWLn4nG5Zt-5" vertex="1" connectable="0">
          <mxGeometry x="-0.049" y="-2" relative="1" as="geometry">
            <mxPoint as="offset" />
          </mxGeometry>
        </mxCell>
        <mxCell id="tTuiCgxSwF_mFrkpsnnS-12" value="Iniciar Sesión" style="rounded=1;whiteSpace=wrap;html=1;arcSize=50;" vertex="1" parent="1">
          <mxGeometry x="304" y="385" width="120" height="30" as="geometry" />
        </mxCell>
        <mxCell id="tTuiCgxSwF_mFrkpsnnS-23" style="edgeStyle=orthogonalEdgeStyle;rounded=0;orthogonalLoop=1;jettySize=auto;html=1;exitX=0.5;exitY=1;exitDx=0;exitDy=0;entryX=0.5;entryY=0;entryDx=0;entryDy=0;dashed=1;" edge="1" parent="1" source="tTuiCgxSwF_mFrkpsnnS-13" target="tTuiCgxSwF_mFrkpsnnS-20">
          <mxGeometry relative="1" as="geometry" />
        </mxCell>
        <mxCell id="tTuiCgxSwF_mFrkpsnnS-24" value="&lt;font style=&quot;font-size: 9px;&quot;&gt;include&lt;/font&gt;" style="edgeLabel;html=1;align=center;verticalAlign=middle;resizable=0;points=[];" vertex="1" connectable="0" parent="tTuiCgxSwF_mFrkpsnnS-23">
          <mxGeometry x="-0.1" y="-1" relative="1" as="geometry">
            <mxPoint x="1" as="offset" />
          </mxGeometry>
        </mxCell>
        <mxCell id="tTuiCgxSwF_mFrkpsnnS-13" value="Autenticarse con Google" style="rounded=1;whiteSpace=wrap;html=1;arcSize=50;" vertex="1" parent="1">
          <mxGeometry x="500" y="380" width="120" height="40" as="geometry" />
        </mxCell>
        <mxCell id="tTuiCgxSwF_mFrkpsnnS-15" style="edgeStyle=orthogonalEdgeStyle;rounded=0;orthogonalLoop=1;jettySize=auto;html=1;exitX=0.5;exitY=0;exitDx=0;exitDy=0;entryX=0.5;entryY=1;entryDx=0;entryDy=0;dashed=1;" edge="1" parent="1" source="tTuiCgxSwF_mFrkpsnnS-14" target="tTuiCgxSwF_mFrkpsnnS-12">
          <mxGeometry relative="1" as="geometry" />
        </mxCell>
        <mxCell id="tTuiCgxSwF_mFrkpsnnS-16" value="&lt;font style=&quot;font-size: 9px;&quot;&gt;extend&lt;/font&gt;" style="edgeLabel;html=1;align=center;verticalAlign=middle;resizable=0;points=[];" vertex="1" connectable="0" parent="tTuiCgxSwF_mFrkpsnnS-15">
          <mxGeometry x="-0.216" y="1" relative="1" as="geometry">
            <mxPoint x="1" y="-5" as="offset" />
          </mxGeometry>
        </mxCell>
        <mxCell id="tTuiCgxSwF_mFrkpsnnS-18" style="rounded=0;orthogonalLoop=1;jettySize=auto;html=1;exitX=0.997;exitY=0.64;exitDx=0;exitDy=0;entryX=0;entryY=0.5;entryDx=0;entryDy=0;dashed=1;exitPerimeter=0;" edge="1" parent="1" source="tTuiCgxSwF_mFrkpsnnS-14" target="tTuiCgxSwF_mFrkpsnnS-17">
          <mxGeometry relative="1" as="geometry">
            <mxPoint x="430" y="540" as="sourcePoint" />
            <mxPoint x="506" y="505" as="targetPoint" />
          </mxGeometry>
        </mxCell>
        <mxCell id="tTuiCgxSwF_mFrkpsnnS-19" value="&lt;font style=&quot;font-size: 9px;&quot;&gt;include&lt;/font&gt;" style="edgeLabel;html=1;align=center;verticalAlign=middle;resizable=0;points=[];" vertex="1" connectable="0" parent="tTuiCgxSwF_mFrkpsnnS-18">
          <mxGeometry x="-0.503" relative="1" as="geometry">
            <mxPoint x="11" y="-5" as="offset" />
          </mxGeometry>
        </mxCell>
        <mxCell id="tTuiCgxSwF_mFrkpsnnS-21" style="rounded=0;orthogonalLoop=1;jettySize=auto;html=1;exitX=1;exitY=0.25;exitDx=0;exitDy=0;entryX=0;entryY=0.5;entryDx=0;entryDy=0;dashed=1;" edge="1" parent="1" source="tTuiCgxSwF_mFrkpsnnS-14" target="tTuiCgxSwF_mFrkpsnnS-20">
          <mxGeometry relative="1" as="geometry" />
        </mxCell>
        <mxCell id="tTuiCgxSwF_mFrkpsnnS-22" value="&lt;font style=&quot;font-size: 9px;&quot;&gt;include&lt;/font&gt;" style="edgeLabel;html=1;align=center;verticalAlign=middle;resizable=0;points=[];" vertex="1" connectable="0" parent="tTuiCgxSwF_mFrkpsnnS-21">
          <mxGeometry x="-0.1917" y="-1" relative="1" as="geometry">
            <mxPoint y="-3" as="offset" />
          </mxGeometry>
        </mxCell>
        <mxCell id="tTuiCgxSwF_mFrkpsnnS-14" value="Iniciar sesion con formulario" style="rounded=1;whiteSpace=wrap;html=1;arcSize=50;" vertex="1" parent="1">
          <mxGeometry x="304" y="500" width="120" height="40" as="geometry" />
        </mxCell>
        <mxCell id="tTuiCgxSwF_mFrkpsnnS-17" value="Validar Datos" style="rounded=1;whiteSpace=wrap;html=1;arcSize=50;" vertex="1" parent="1">
          <mxGeometry x="500" y="510" width="120" height="30" as="geometry" />
        </mxCell>
        <mxCell id="tTuiCgxSwF_mFrkpsnnS-20" value="Conceder acceso a la aplicacion" style="rounded=1;whiteSpace=wrap;html=1;arcSize=50;" vertex="1" parent="1">
          <mxGeometry x="490" y="465" width="140" height="35" as="geometry" />
        </mxCell>
        <mxCell id="tTuiCgxSwF_mFrkpsnnS-25" value="Sistema" style="shape=umlActor;verticalLabelPosition=bottom;verticalAlign=top;html=1;outlineConnect=0;" vertex="1" parent="1">
          <mxGeometry x="670" y="470" width="30" height="60" as="geometry" />
        </mxCell>
        <mxCell id="tTuiCgxSwF_mFrkpsnnS-26" value="" style="endArrow=none;html=1;rounded=0;exitX=1;exitY=0.5;exitDx=0;exitDy=0;" edge="1" parent="1" source="tTuiCgxSwF_mFrkpsnnS-20" target="tTuiCgxSwF_mFrkpsnnS-25">
          <mxGeometry width="50" height="50" relative="1" as="geometry">
            <mxPoint x="650" y="480" as="sourcePoint" />
            <mxPoint x="700" y="430" as="targetPoint" />
          </mxGeometry>
        </mxCell>
        <mxCell id="tTuiCgxSwF_mFrkpsnnS-27" value="" style="endArrow=none;html=1;rounded=0;exitX=1;exitY=0.5;exitDx=0;exitDy=0;" edge="1" parent="1" source="tTuiCgxSwF_mFrkpsnnS-17" target="tTuiCgxSwF_mFrkpsnnS-25">
          <mxGeometry width="50" height="50" relative="1" as="geometry">
            <mxPoint x="644" y="590" as="sourcePoint" />
            <mxPoint x="694" y="540" as="targetPoint" />
          </mxGeometry>
        </mxCell>
        <mxCell id="tTuiCgxSwF_mFrkpsnnS-28" value="" style="rounded=0;whiteSpace=wrap;html=1;" vertex="1" parent="1">
          <mxGeometry x="282" y="100" width="364" height="200" as="geometry" />
        </mxCell>
        <mxCell id="tTuiCgxSwF_mFrkpsnnS-29" value="&lt;div&gt;Usuario&lt;/div&gt;&lt;div&gt;nuevo&lt;/div&gt;" style="shape=umlActor;verticalLabelPosition=bottom;verticalAlign=top;html=1;outlineConnect=0;" vertex="1" parent="1">
          <mxGeometry x="222" y="110" width="30" height="60" as="geometry" />
        </mxCell>
        <mxCell id="tTuiCgxSwF_mFrkpsnnS-30" value="" style="endArrow=none;html=1;rounded=0;entryX=0;entryY=0.5;entryDx=0;entryDy=0;" edge="1" parent="1" source="tTuiCgxSwF_mFrkpsnnS-29" target="tTuiCgxSwF_mFrkpsnnS-33">
          <mxGeometry width="50" height="50" relative="1" as="geometry">
            <mxPoint x="426" y="340" as="sourcePoint" />
            <mxPoint x="306" y="195" as="targetPoint" />
          </mxGeometry>
        </mxCell>
        <mxCell id="tTuiCgxSwF_mFrkpsnnS-31" style="rounded=0;orthogonalLoop=1;jettySize=auto;html=1;exitX=0;exitY=0.5;exitDx=0;exitDy=0;entryX=1;entryY=0.5;entryDx=0;entryDy=0;dashed=1;" edge="1" parent="1" source="tTuiCgxSwF_mFrkpsnnS-36" target="tTuiCgxSwF_mFrkpsnnS-33">
          <mxGeometry relative="1" as="geometry">
            <mxPoint x="496" y="195" as="sourcePoint" />
            <mxPoint x="426" y="195" as="targetPoint" />
          </mxGeometry>
        </mxCell>
        <mxCell id="tTuiCgxSwF_mFrkpsnnS-32" value="&lt;font style=&quot;font-size: 9px;&quot;&gt;extend&lt;/font&gt;" style="edgeLabel;html=1;align=center;verticalAlign=middle;resizable=0;points=[];" vertex="1" connectable="0" parent="tTuiCgxSwF_mFrkpsnnS-31">
          <mxGeometry x="-0.049" y="-2" relative="1" as="geometry">
            <mxPoint as="offset" />
          </mxGeometry>
        </mxCell>
        <mxCell id="tTuiCgxSwF_mFrkpsnnS-33" value="Registrar usuario" style="rounded=1;whiteSpace=wrap;html=1;arcSize=50;" vertex="1" parent="1">
          <mxGeometry x="306" y="125" width="120" height="30" as="geometry" />
        </mxCell>
        <mxCell id="tTuiCgxSwF_mFrkpsnnS-34" style="edgeStyle=orthogonalEdgeStyle;rounded=0;orthogonalLoop=1;jettySize=auto;html=1;exitX=0.5;exitY=1;exitDx=0;exitDy=0;entryX=0.5;entryY=0;entryDx=0;entryDy=0;dashed=1;" edge="1" parent="1" source="tTuiCgxSwF_mFrkpsnnS-36" target="tTuiCgxSwF_mFrkpsnnS-45">
          <mxGeometry relative="1" as="geometry" />
        </mxCell>
        <mxCell id="tTuiCgxSwF_mFrkpsnnS-35" value="&lt;font style=&quot;font-size: 9px;&quot;&gt;include&lt;/font&gt;" style="edgeLabel;html=1;align=center;verticalAlign=middle;resizable=0;points=[];" vertex="1" connectable="0" parent="tTuiCgxSwF_mFrkpsnnS-34">
          <mxGeometry x="-0.1" y="-1" relative="1" as="geometry">
            <mxPoint x="1" as="offset" />
          </mxGeometry>
        </mxCell>
        <mxCell id="tTuiCgxSwF_mFrkpsnnS-36" value="Autenticarse con Google" style="rounded=1;whiteSpace=wrap;html=1;arcSize=50;" vertex="1" parent="1">
          <mxGeometry x="502" y="120" width="120" height="40" as="geometry" />
        </mxCell>
        <mxCell id="tTuiCgxSwF_mFrkpsnnS-37" style="edgeStyle=orthogonalEdgeStyle;rounded=0;orthogonalLoop=1;jettySize=auto;html=1;exitX=0.5;exitY=0;exitDx=0;exitDy=0;entryX=0.5;entryY=1;entryDx=0;entryDy=0;dashed=1;" edge="1" parent="1" source="tTuiCgxSwF_mFrkpsnnS-43" target="tTuiCgxSwF_mFrkpsnnS-33">
          <mxGeometry relative="1" as="geometry" />
        </mxCell>
        <mxCell id="tTuiCgxSwF_mFrkpsnnS-38" value="&lt;font style=&quot;font-size: 9px;&quot;&gt;extend&lt;/font&gt;" style="edgeLabel;html=1;align=center;verticalAlign=middle;resizable=0;points=[];" vertex="1" connectable="0" parent="tTuiCgxSwF_mFrkpsnnS-37">
          <mxGeometry x="-0.216" y="1" relative="1" as="geometry">
            <mxPoint x="1" y="-5" as="offset" />
          </mxGeometry>
        </mxCell>
        <mxCell id="tTuiCgxSwF_mFrkpsnnS-39" style="rounded=0;orthogonalLoop=1;jettySize=auto;html=1;exitX=0.997;exitY=0.64;exitDx=0;exitDy=0;entryX=0;entryY=0.5;entryDx=0;entryDy=0;dashed=1;exitPerimeter=0;" edge="1" parent="1" source="tTuiCgxSwF_mFrkpsnnS-43" target="tTuiCgxSwF_mFrkpsnnS-44">
          <mxGeometry relative="1" as="geometry">
            <mxPoint x="432" y="280" as="sourcePoint" />
            <mxPoint x="508" y="245" as="targetPoint" />
          </mxGeometry>
        </mxCell>
        <mxCell id="tTuiCgxSwF_mFrkpsnnS-40" value="&lt;font style=&quot;font-size: 9px;&quot;&gt;include&lt;/font&gt;" style="edgeLabel;html=1;align=center;verticalAlign=middle;resizable=0;points=[];" vertex="1" connectable="0" parent="tTuiCgxSwF_mFrkpsnnS-39">
          <mxGeometry x="-0.503" relative="1" as="geometry">
            <mxPoint x="11" y="-5" as="offset" />
          </mxGeometry>
        </mxCell>
        <mxCell id="tTuiCgxSwF_mFrkpsnnS-41" style="rounded=0;orthogonalLoop=1;jettySize=auto;html=1;exitX=1;exitY=0.25;exitDx=0;exitDy=0;entryX=0;entryY=0.5;entryDx=0;entryDy=0;dashed=1;" edge="1" parent="1" source="tTuiCgxSwF_mFrkpsnnS-43" target="tTuiCgxSwF_mFrkpsnnS-45">
          <mxGeometry relative="1" as="geometry" />
        </mxCell>
        <mxCell id="tTuiCgxSwF_mFrkpsnnS-42" value="&lt;font style=&quot;font-size: 9px;&quot;&gt;include&lt;/font&gt;" style="edgeLabel;html=1;align=center;verticalAlign=middle;resizable=0;points=[];" vertex="1" connectable="0" parent="tTuiCgxSwF_mFrkpsnnS-41">
          <mxGeometry x="-0.1917" y="-1" relative="1" as="geometry">
            <mxPoint y="-3" as="offset" />
          </mxGeometry>
        </mxCell>
        <mxCell id="tTuiCgxSwF_mFrkpsnnS-43" value="Registrar con formulario" style="rounded=1;whiteSpace=wrap;html=1;arcSize=50;" vertex="1" parent="1">
          <mxGeometry x="306" y="240" width="120" height="40" as="geometry" />
        </mxCell>
        <mxCell id="tTuiCgxSwF_mFrkpsnnS-44" value="Validar Datos" style="rounded=1;whiteSpace=wrap;html=1;arcSize=50;" vertex="1" parent="1">
          <mxGeometry x="502" y="250" width="120" height="30" as="geometry" />
        </mxCell>
        <mxCell id="tTuiCgxSwF_mFrkpsnnS-45" value="Conceder acceso a la aplicacion" style="rounded=1;whiteSpace=wrap;html=1;arcSize=50;" vertex="1" parent="1">
          <mxGeometry x="492" y="205" width="140" height="35" as="geometry" />
        </mxCell>
        <mxCell id="tTuiCgxSwF_mFrkpsnnS-46" value="Sistema" style="shape=umlActor;verticalLabelPosition=bottom;verticalAlign=top;html=1;outlineConnect=0;" vertex="1" parent="1">
          <mxGeometry x="672" y="210" width="30" height="60" as="geometry" />
        </mxCell>
        <mxCell id="tTuiCgxSwF_mFrkpsnnS-47" value="" style="endArrow=none;html=1;rounded=0;exitX=1;exitY=0.5;exitDx=0;exitDy=0;" edge="1" parent="1" source="tTuiCgxSwF_mFrkpsnnS-45" target="tTuiCgxSwF_mFrkpsnnS-46">
          <mxGeometry width="50" height="50" relative="1" as="geometry">
            <mxPoint x="652" y="220" as="sourcePoint" />
            <mxPoint x="702" y="170" as="targetPoint" />
          </mxGeometry>
        </mxCell>
        <mxCell id="tTuiCgxSwF_mFrkpsnnS-48" value="" style="endArrow=none;html=1;rounded=0;exitX=1;exitY=0.5;exitDx=0;exitDy=0;" edge="1" parent="1" source="tTuiCgxSwF_mFrkpsnnS-44" target="tTuiCgxSwF_mFrkpsnnS-46">
          <mxGeometry width="50" height="50" relative="1" as="geometry">
            <mxPoint x="646" y="330" as="sourcePoint" />
            <mxPoint x="696" y="280" as="targetPoint" />
          </mxGeometry>
        </mxCell>
      </root>
    </mxGraphModel>
  </diagram>
</mxfile>
